<?xml version="1.0" encoding="UTF-8"?><svg id="Calque_1" xmlns="http://www.w3.org/2000/svg" viewBox="0 0 1112.17 145.97"><defs><style>.cls-1{fill:#d53442;}</style></defs><path class="cls-1" d="M66.81,21.9H0s23.39,28.72,23.39,28.72h43.42c20.38,0,35.63,11.34,35.63,33.32,0,21.98-15.24,33.5-35.63,33.5h-12.94s0-44.45,0-44.45H23.39s0,72.99,0,72.99h43.42c41.48,0,65.93-24.1,65.93-62.03,0-37.75-24.46-62.03-65.93-62.03Z"/><polygon class="cls-1" points="299 119.74 268.16 21.9 254.41 21.9 236.43 21.9 149.58 21.9 149.58 145.97 246.29 145.97 234.85 117.44 179.9 117.44 179.9 96.88 226.54 97.4 218.22 69.76 179.9 69.76 179.9 50.62 246.73 50.62 280.92 145.97 316.9 145.97 365.08 0 329.66 21.9 299 119.74"/><rect class="cls-1" x="366.7" y="80.57" width="56.89" height="25.34"/><polygon class="cls-1" points="444.86 145.97 475.17 145.97 475.17 7.27 444.86 48.31 444.86 145.97"/><rect class="cls-1" x="496.44" y="80.57" width="56.89" height="25.34"/><polygon class="cls-1" points="605.09 117.44 605.09 44.52 574.6 21.9 574.6 145.97 651.35 145.97 632.85 117.44 605.09 117.44"/><path class="cls-1" d="M798.81,21.9l-34.39,95.53h-66.81s0-20.56,0-20.56h40.41s13.31-27.12,13.31-27.12h-53.73s0-19.14,0-19.14h67.99s13.08-28.72,13.08-28.72h-111.38s0,124.07,0,124.07h86.85s20.97,0,20.97,0h10.94s7.27-23.04,7.27-23.04h46.97s7.27,23.04,7.27,23.04h31.73s-44.66-124.07-44.66-124.07h-35.8Zm1.6,77.99l16.31-51.57,16.31,51.57h-32.61Z"/><path class="cls-1" d="M987.04,64.8c0-24.81-16.13-42.89-47.67-42.89h-47.68s0,28.72,0,28.72h47.68c10.1,0,17.01,4.96,17.01,14.18,0,10.63-8.16,14.18-17.01,14.18h-17.37s0-10.92,0-10.92h-30.31s0,77.92,0,77.92l30.31-13.47v-28s19.14,0,19.14,0l20.91,41.47h32.26s-26.41-48.39-26.41-48.39c11.87-6.74,19.14-17.9,19.14-32.79Z"/><polygon class="cls-1" points="1081.68 21.9 1081.68 94.22 1033.3 21.9 1006.71 21.9 1006.71 145.97 1037.2 145.97 1037.2 73.66 1085.58 145.97 1112.17 145.97 1112.17 6.88 1081.68 21.9"/></svg>