<?xml version="1.0" encoding="UTF-8"?><svg id="Calque_2" xmlns="http://www.w3.org/2000/svg" viewBox="0 0 48.1 48.14"><defs><style>.cls-1{fill:#fff;}.cls-2{fill:#c4c4c2;}</style></defs><g id="Calque_1-2"><g><path class="cls-1" d="M13.28,37.16c0-2.68-.16-5.27,.04-7.83,.29-3.72,3.63-7.01,7.34-7.36,1.88-.18,3.78-.12,5.67-.14,2.21-.03,4.08-1.65,4.34-3.79,.28-2.26-1.1-4.33-3.31-4.83-.72-.16-1.49-.14-2.24-.14-2.37,.02-4.73-.12-7.08,.4-7.79,1.71-13.61,8.87-13.64,16.84,0,2.03,0,4.06,0,6.09,0,.24,0,.48,0,.76-.92,0-1.74,.03-2.55,0-.76-.03-1.36,.2-1.67,.92-.33,.74-.19,1.41,.36,2.02,2.18,2.39,4.35,4.8,6.54,7.19,1.07,1.17,2.34,1.16,3.43-.02,1.05-1.14,2.09-2.29,3.13-3.44,1.15-1.27,2.31-2.53,3.45-3.8,.53-.59,.61-1.26,.29-1.97-.3-.65-.83-.91-1.55-.89-.86,.03-1.72,0-2.54,0ZM35.13,10.8c0,2.37,0,4.6,0,6.83,0,4.69-3.94,8.61-8.64,8.64-1.73,0-3.47-.02-5.19,.13-2.08,.18-3.69,2.11-3.67,4.2,.02,2.08,1.6,4.03,3.64,4.15,2.36,.13,4.75,.21,7.1-.04,4.62-.5,8.44-2.65,11.4-6.25,2.35-2.86,3.72-6.15,3.88-9.88,.1-2.3,.09-4.6,.12-6.91,0-.27,0-.53,0-.88,.88,0,1.68,0,2.47,0,.73,0,1.37-.18,1.7-.9,.34-.73,.13-1.37-.39-1.94-2.18-2.39-4.35-4.8-6.55-7.18-.96-1.04-2.13-1.04-3.09,0-2.2,2.38-4.36,4.79-6.55,7.18-.52,.57-.73,1.2-.39,1.94,.34,.72,.97,.9,1.7,.9,.79,0,1.58,0,2.47,0Z"/><path class="cls-1" d="M13.28,37.16c.81,0,1.68,.02,2.54,0,.72-.02,1.25,.24,1.55,.89,.33,.71,.24,1.38-.29,1.97-1.14,1.27-2.3,2.54-3.45,3.8-1.04,1.15-2.08,2.3-3.13,3.44-1.09,1.18-2.35,1.19-3.43,.02-2.19-2.39-4.36-4.79-6.54-7.19-.55-.6-.69-1.28-.36-2.02,.32-.72,.91-.95,1.67-.92,.82,.04,1.64,0,2.55,0,0-.28,0-.52,0-.76,0-2.03,0-4.06,0-6.09,.03-7.97,5.85-15.13,13.64-16.84,2.35-.52,4.72-.38,7.08-.4,.75,0,1.52-.03,2.24,.14,2.21,.5,3.58,2.57,3.31,4.83-.26,2.14-2.13,3.76-4.34,3.79-1.89,.02-3.79-.04-5.67,.14-3.71,.35-7.05,3.64-7.34,7.36-.2,2.56-.04,5.15-.04,7.83Z"/><path class="cls-2" d="M35.13,10.8c-.88,0-1.67,0-2.47,0-.73,0-1.37-.18-1.7-.9-.34-.73-.13-1.36,.39-1.94,2.18-2.39,4.35-4.8,6.55-7.18,.96-1.05,2.13-1.05,3.09,0,2.2,2.38,4.37,4.79,6.55,7.18,.52,.57,.73,1.21,.39,1.94-.33,.72-.97,.9-1.7,.9-.79,0-1.58,0-2.47,0,0,.35,0,.61,0,.88-.04,2.3-.03,4.61-.12,6.91-.16,3.73-1.53,7.01-3.88,9.88-2.96,3.6-6.78,5.75-11.4,6.25-2.34,.25-4.74,.17-7.1,.04-2.03-.11-3.62-2.07-3.64-4.15-.02-2.08,1.59-4.01,3.67-4.2,1.72-.15,3.46-.13,5.19-.13,4.7-.02,8.63-3.94,8.64-8.64,0-2.23,0-4.47,0-6.83Z"/></g></g></svg>