<?xml version="1.0" encoding="UTF-8"?><svg id="Calque_2" xmlns="http://www.w3.org/2000/svg" viewBox="0 0 34.94 48.09"><defs><style>.cls-1{fill:#fff;}.cls-2{fill:#1e1f1c;}</style></defs><g id="Calque_1-2"><g><path class="cls-1" d="M24.99,0c.24,.22,.51,.41,.72,.65,2.92,3.33,5.84,6.66,8.76,9.99,.32,.36,.47,.75,.47,1.23,0,11.36,0,22.73,0,34.09,0,1.37-.76,2.13-2.11,2.13-10.24,0-20.48,0-30.71,0-1.33,0-2.1-.76-2.1-2.09C0,31.36,0,16.73,0,2.1,0,1.06,.52,.42,1.41,0,9.27,0,17.13,0,24.99,0Zm7.99,31.99V12.49h-.55c-2.46,0-4.92,0-7.37,0-.99,0-1.3-.3-1.3-1.28,0-2.91,0-5.82,0-8.73,0-.18,0-.36,0-.56H1.96V31.99h31.02Zm-2.71,2.77c-1.81-.65-3.57-.83-5.33-.03-1.74,.79-2.43,2.9-1.45,4.44,.5,.8,1.29,1.25,2.13,1.61,.61,.26,1.23,.53,1.83,.83,.48,.24,.7,.66,.62,1.2-.08,.51-.43,.86-.89,.91-.72,.07-1.46,.06-2.18-.02-.54-.07-1.06-.31-1.61-.48-.14,.58-.26,1.16-.43,1.72-.09,.29,.01,.4,.25,.48,1.86,.66,3.72,.8,5.57,0,1.14-.51,1.8-1.43,1.92-2.69,.12-1.23-.34-2.23-1.38-2.88-.68-.43-1.45-.71-2.18-1.07-.38-.19-.78-.35-1.11-.6-.6-.46-.53-1.26,.14-1.62,.21-.12,.47-.19,.71-.22,.96-.12,1.88,.09,2.81,.48,.19-.69,.38-1.35,.58-2.07Zm-16.54,10.55c2.05,.77,4.08,1.02,6.06,.02,2.26-1.13,2.37-4.31,.29-5.54-.59-.35-1.23-.6-1.85-.9-.42-.2-.87-.37-1.26-.61-.74-.47-.66-1.38,.12-1.76,.19-.09,.41-.15,.63-.17,.97-.11,1.89,.09,2.81,.48,.19-.7,.37-1.37,.55-2.02-1.51-.78-4-.78-5.42-.04-2.15,1.13-2.49,4.04-.29,5.43,.39,.25,.82,.45,1.24,.65,.53,.25,1.09,.47,1.62,.73,.47,.23,.74,.62,.68,1.17-.07,.6-.47,.95-1.02,1-.67,.06-1.37,.05-2.04-.05-.54-.07-1.06-.31-1.62-.49-.17,.68-.33,1.36-.51,2.09Zm-1.12-10.73c-.91-.13-1.75-.32-2.6-.36-1.76-.07-3.39,.37-4.7,1.61-1.55,1.47-1.94,3.34-1.7,5.37,.19,1.62,.9,2.97,2.32,3.83,1.96,1.18,4.07,1.12,6.21,.56,.1-.03,.26-.18,.25-.26-.09-.61-.22-1.21-.33-1.81-1.95,.45-3.81,.7-5.18-1.12-.85-1.12-.9-3.37-.03-4.58,1.36-1.91,3.27-1.67,5.22-1.15,.17-.65,.33-1.3,.54-2.11Z"/><path class="cls-2" d="M32.98,31.99H1.96V1.92H23.76c0,.2,0,.38,0,.56,0,2.91,0,5.82,0,8.73,0,.98,.31,1.28,1.3,1.28,2.46,0,4.92,0,7.37,0h.55V31.99Zm-8.46-13.47c-.17-.03-.3-.06-.44-.08-.81-.14-1.15-.5-1.17-1.32,0-.45,.04-.9,.07-1.35,.06-.84,.22-1.68,.19-2.52-.05-1.65-1.77-2.82-3.42-2.34,0,.24,.01,.48,0,.73-.01,.25,.07,.38,.34,.36,1.27-.05,1.76,.75,1.64,2-.08,.85-.2,1.71-.27,2.56-.06,.7,.04,1.39,.57,1.91,.23,.23,.53,.38,.7,.49-.31,.3-.76,.56-.94,.94-.23,.49-.32,1.08-.31,1.62,.02,.87,.17,1.74,.26,2.61,.12,1.24-.44,1.9-1.68,1.97-.09,0-.18,.02-.28,.03v1.07c2.25,.25,3.48-.86,3.4-3.08-.03-.68-.18-1.36-.23-2.05-.11-1.4-.25-2.34,1.47-2.54,.03,0,.05-.03,.09-.06v-.97Zm-10.16-7.8c-.7,.14-1.35,.21-1.96,.42-.83,.28-1.28,.96-1.38,1.8-.07,.57-.02,1.15,.03,1.73,.06,.79,.2,1.58,.22,2.38,.03,.86-.36,1.26-1.2,1.4-.15,.02-.3,.06-.45,.09v.98c.1,.03,.19,.06,.28,.07,1.08,.19,1.4,.58,1.38,1.69,0,.2-.03,.41-.05,.61-.08,.81-.21,1.61-.25,2.42-.12,2.29,1.53,3.16,3.41,2.88v-1.05c-1.5-.01-2.07-.54-1.97-2.17,.04-.61,.19-1.21,.22-1.81,.02-.62,.02-1.25-.09-1.86-.12-.65-.63-1.04-1.27-1.26,.99-.53,1.33-.95,1.4-1.82,.03-.45,0-.91-.04-1.36-.06-.76-.2-1.52-.21-2.28-.02-1.03,.49-1.52,1.51-1.56,.14,0,.27-.02,.43-.03v-1.25Z"/><path class="cls-2" d="M30.27,34.76c-.2,.72-.38,1.37-.58,2.07-.92-.39-1.84-.6-2.81-.48-.24,.03-.5,.1-.71,.22-.66,.37-.74,1.17-.14,1.62,.33,.25,.73,.41,1.11,.6,.73,.36,1.5,.64,2.18,1.07,1.04,.65,1.49,1.66,1.38,2.88-.12,1.26-.77,2.18-1.92,2.69-1.84,.81-3.71,.67-5.57,0-.24-.09-.34-.19-.25-.48,.17-.56,.29-1.15,.43-1.72,.55,.17,1.07,.41,1.61,.48,.72,.09,1.46,.1,2.18,.02,.46-.05,.81-.4,.89-.91,.08-.54-.14-.96-.62-1.2-.6-.3-1.21-.56-1.83-.83-.84-.36-1.63-.81-2.13-1.61-.98-1.55-.29-3.66,1.45-4.44,1.76-.8,3.52-.62,5.33,.03Z"/><path class="cls-2" d="M13.73,45.31c.18-.73,.34-1.4,.51-2.09,.56,.17,1.08,.41,1.62,.49,.67,.09,1.37,.11,2.04,.05,.55-.05,.95-.4,1.02-1,.06-.55-.21-.94-.68-1.17-.53-.26-1.08-.48-1.62-.73-.42-.2-.85-.4-1.24-.65-2.2-1.39-1.86-4.3,.29-5.43,1.42-.75,3.91-.74,5.42,.04-.18,.65-.36,1.32-.55,2.02-.92-.39-1.84-.59-2.81-.48-.21,.02-.43,.08-.63,.17-.79,.38-.86,1.29-.12,1.76,.39,.25,.84,.41,1.26,.61,.62,.3,1.26,.55,1.85,.9,2.07,1.24,1.96,4.41-.29,5.54-1.98,.99-4.02,.75-6.06-.02Z"/><path class="cls-2" d="M12.61,34.58c-.21,.81-.37,1.46-.54,2.11-1.96-.52-3.86-.76-5.22,1.15-.86,1.21-.82,3.46,.03,4.58,1.37,1.81,3.23,1.57,5.18,1.12,.11,.59,.24,1.2,.33,1.81,.01,.07-.15,.23-.25,.26-2.13,.56-4.24,.63-6.21-.56-1.42-.86-2.14-2.22-2.32-3.83-.23-2.03,.15-3.9,1.7-5.37,1.31-1.24,2.94-1.69,4.7-1.61,.85,.03,1.68,.23,2.6,.36Z"/><path class="cls-1" d="M24.51,18.52v.97s-.06,.06-.09,.06c-1.73,.2-1.58,1.13-1.47,2.54,.05,.68,.21,1.36,.23,2.05,.09,2.22-1.14,3.33-3.4,3.08v-1.07c.1-.01,.19-.02,.28-.03,1.24-.07,1.8-.72,1.68-1.97-.09-.87-.24-1.74-.26-2.61-.01-.54,.08-1.13,.31-1.62,.18-.38,.63-.64,.94-.94-.17-.12-.48-.27-.7-.49-.52-.53-.62-1.21-.57-1.91,.07-.86,.19-1.71,.27-2.56,.12-1.24-.37-2.05-1.64-2-.28,.01-.36-.11-.34-.36,.01-.25,0-.5,0-.73,1.64-.48,3.37,.69,3.42,2.34,.02,.84-.13,1.68-.19,2.52-.03,.45-.08,.9-.07,1.35,.02,.82,.36,1.18,1.17,1.32,.14,.02,.27,.05,.44,.08Z"/><path class="cls-1" d="M14.35,10.72v1.25c-.16,.01-.3,.03-.43,.03-1.02,.05-1.53,.54-1.51,1.56,.01,.76,.15,1.52,.21,2.28,.04,.45,.07,.91,.04,1.36-.06,.87-.4,1.29-1.4,1.82,.64,.22,1.15,.61,1.27,1.26,.11,.61,.12,1.24,.09,1.86-.02,.61-.18,1.21-.22,1.81-.1,1.63,.47,2.16,1.97,2.17v1.05c-1.87,.28-3.52-.59-3.41-2.88,.04-.81,.17-1.61,.25-2.42,.02-.2,.04-.4,.05-.61,.02-1.11-.3-1.5-1.38-1.69-.09-.02-.18-.05-.28-.07v-.98c.15-.03,.3-.06,.45-.09,.84-.14,1.22-.54,1.2-1.4-.02-.79-.16-1.58-.22-2.38-.04-.58-.09-1.16-.03-1.73,.1-.84,.55-1.52,1.38-1.8,.61-.21,1.26-.27,1.96-.42Z"/></g></g></svg>