<?xml version="1.0" encoding="UTF-8"?><svg id="Calque_2" xmlns="http://www.w3.org/2000/svg" viewBox="0 0 38.69 43.45"><defs><style>.cls-1{fill:#fff;}</style></defs><g id="Calque_1-2"><g><path class="cls-1" d="M2.85,20.06H.03C-.37,14.2,3.21,6.27,10.58,2.37,18.7-1.93,28.9-.4,35.59,7.17V1.58h3.1V13.85h-12.25v-2.98h7.78c-2.63-4.9-9.11-8.13-15.16-7.75C11.55,3.58,3.48,9.34,2.85,20.06Z"/><path class="cls-1" d="M17.12,27.9c-4.25,.11-7.72-3.21-7.87-7.54-.15-4.26,3.26-7.82,7.6-7.94,4.22-.11,7.73,3.26,7.88,7.56,.14,4.29-3.23,7.81-7.61,7.92Zm-.14-12.44c-2.49-.03-4.64,2.07-4.71,4.6-.06,2.52,2.07,4.74,4.63,4.81,2.5,.07,4.74-2.11,4.78-4.66,.04-2.49-2.17-4.71-4.71-4.74Z"/><path class="cls-1" d="M27.81,43.45h-3.01c0-1.39,0-2.74,0-4.09-.02-3.3-1.91-5.19-5.21-5.21-1.84,0-3.68-.03-5.52,0-2.95,.05-4.86,2-4.9,4.96-.02,1.4,0,2.8,0,4.28h-2.87c0-2.12-.26-4.24,.06-6.28,.53-3.47,3.79-5.99,7.3-6.03,2.06-.02,4.12,0,6.19,0,4.36,0,7.52,2.78,7.94,7.1,.16,1.71,.03,3.44,.03,5.25Z"/></g></g></svg>