<?xml version="1.0" encoding="UTF-8"?><svg id="Calque_2" xmlns="http://www.w3.org/2000/svg" viewBox="0 0 39.66 55.89"><defs><style>.cls-1{fill:#fff;}</style></defs><g id="Calque_1-2"><g><path class="cls-1" d="M22.34,16.66c0,.73,0,1.15,0,1.56,0,11.55,0,23.09,0,34.64,0,1.97,.99,3.04,2.78,3.02,1.82-.02,2.83-1.08,2.85-2.98,.06-6.1,.11-12.21,.18-18.31,0-.32,.05-.64,.07-.96,.11-.01,.22-.02,.33-.03,.06,.35,.17,.71,.17,1.06,.05,6.14,.07,12.28,.13,18.42,.02,1.86,1.13,2.87,3,2.83,1.87-.04,2.83-1,2.83-2.84,.01-7.12,.02-14.23,.03-21.35,0-4.71,0-9.42,.01-14.13,0-.33,.13-.66,.2-.99,.14,.02,.27,.05,.41,.07,0,.4,0,.8,0,1.2,0,4.22-.03,8.44,.04,12.66,.01,.7,.32,1.51,.75,2.06,.52,.66,1.39,.76,2.21,.39,.97-.44,1.33-1.25,1.33-2.28,0-5.2,0-10.39,0-15.59,0-2.23-.97-3.73-3.08-4.46-.94-.32-1.97-.45-2.97-.48-2.82-.06-5.65,.05-8.47-.05-2.27-.08-4.09,.76-5.57,2.38-1.15,1.26-2.25,2.57-3.29,3.93-.55,.72-1.15,.97-2.04,.94-1.64-.06-3.28-.03-4.92-.01-1.54,.02-2.53,.92-2.49,2.22,.04,1.25,1.02,2.08,2.51,2.09,2.16,0,4.33,.08,6.49-.04,.76-.04,1.63-.39,2.22-.88,1.43-1.2,2.73-2.56,4.3-4.07Zm-2.6,13.22c-.79,0-1.48,.04-2.17-.01-.67-.05-.86,.22-.97,.87-1.09,6.6-2.24,13.18-3.32,19.78-.17,1.03-.48,1.52-1.62,1.4-1.14-.12-2.3,0-3.45-.03-1.78-.04-1.46,.37-1.81-1.6-1.14-6.55-2.24-13.11-3.37-19.67-.05-.27-.32-.68-.53-.7-.82-.08-1.64-.03-2.4-.03-.08,.17-.11,.2-.1,.23,1.36,8.03,2.72,16.07,4.11,24.09,.05,.26,.5,.65,.78,.65,3.28,.04,6.56,.02,9.83,.04,.61,0,.82-.19,.92-.8,.86-5.19,1.77-10.37,2.65-15.55,.48-2.84,.95-5.68,1.45-8.66ZM33.4,4.78C33.41,2.13,31.28-.02,28.64,0c-2.62,.02-4.69,2.1-4.71,4.72-.01,2.62,2.06,4.75,4.64,4.78,2.65,.03,4.81-2.08,4.82-4.72ZM8.82,25.08c-.62,.62-1.15,1.15-1.65,1.66,.89,.94,1.72,1.8,2.41,2.53,.63-.53,1.23-1.03,1.71-1.43-.84-.94-1.62-1.81-2.47-2.76Zm3.07,5.68c-.84,.31-1.53,.56-2.27,.84,.43,1.23,.82,2.33,1.23,3.5,.79-.28,1.5-.52,2.27-.79-.41-1.19-.79-2.3-1.23-3.55Zm-4.55,3.79c.11,1.3,.21,2.48,.31,3.72,.87-.06,1.58-.11,2.38-.17-.1-1.28-.19-2.44-.29-3.71-.83,.06-1.57,.1-2.39,.16Z"/><path class="cls-1" d="M22.34,16.66c-1.57,1.51-2.87,2.87-4.3,4.07-.59,.49-1.45,.84-2.22,.88-2.16,.12-4.32,.05-6.49,.04-1.48,0-2.47-.84-2.51-2.09-.04-1.3,.95-2.2,2.49-2.22,1.64-.02,3.28-.05,4.92,.01,.88,.03,1.49-.22,2.04-.94,1.03-1.36,2.14-2.67,3.29-3.93,1.48-1.62,3.3-2.45,5.57-2.38,2.82,.1,5.65-.02,8.47,.05,.99,.02,2.03,.16,2.97,.48,2.11,.72,3.08,2.23,3.08,4.46,0,5.2,0,10.39,0,15.59,0,1.04-.35,1.84-1.33,2.28-.82,.37-1.69,.27-2.21-.39-.44-.55-.74-1.36-.75-2.06-.07-4.22-.04-8.44-.04-12.66,0-.4,0-.8,0-1.2-.14-.02-.27-.05-.41-.07-.07,.33-.2,.66-.2,.99-.01,4.71,0,9.42-.01,14.13,0,7.12-.02,14.23-.03,21.35,0,1.84-.96,2.8-2.83,2.84-1.86,.04-2.98-.97-3-2.83-.06-6.14-.08-12.28-.13-18.42,0-.35-.11-.71-.17-1.06-.11,.01-.22,.02-.33,.03-.03,.32-.07,.64-.07,.96-.06,6.1-.12,12.21-.18,18.31-.02,1.9-1.04,2.97-2.85,2.98-1.79,.02-2.78-1.05-2.78-3.02,0-11.55,0-23.09,0-34.64,0-.41,0-.83,0-1.56Z"/><path class="cls-1" d="M19.74,29.88c-.5,2.98-.97,5.82-1.45,8.66-.88,5.18-1.79,10.36-2.65,15.55-.1,.62-.31,.81-.92,.8-3.28-.02-6.56,0-9.83-.04-.27,0-.73-.39-.78-.65C2.72,46.18,1.36,38.15,0,30.12c0-.03,.03-.06,.1-.23,.76,0,1.59-.05,2.4,.03,.2,.02,.48,.43,.53,.7,1.14,6.55,2.24,13.11,3.37,19.67,.34,1.97,.03,1.56,1.81,1.6,1.15,.02,2.31-.09,3.45,.03,1.15,.12,1.46-.37,1.62-1.4,1.08-6.6,2.23-13.19,3.32-19.78,.11-.65,.3-.92,.97-.87,.68,.05,1.37,.01,2.17,.01Z"/><path class="cls-1" d="M33.4,4.78c-.01,2.64-2.17,4.75-4.82,4.72-2.58-.03-4.65-2.16-4.64-4.78C23.94,2.1,26.02,.02,28.64,0c2.64-.02,4.77,2.13,4.76,4.78Z"/><path class="cls-1" d="M8.82,25.08c.85,.95,1.63,1.83,2.47,2.76-.48,.4-1.07,.9-1.71,1.43-.69-.73-1.52-1.6-2.41-2.53,.5-.5,1.03-1.03,1.65-1.66Z"/><path class="cls-1" d="M11.88,30.76c.43,1.25,.81,2.35,1.23,3.55-.77,.27-1.48,.51-2.27,.79-.41-1.17-.8-2.27-1.23-3.5,.74-.27,1.44-.53,2.27-.84Z"/><path class="cls-1" d="M7.33,34.55c.82-.05,1.56-.1,2.39-.16,.1,1.26,.19,2.42,.29,3.71-.8,.06-1.51,.11-2.38,.17-.1-1.23-.2-2.41-.31-3.72Z"/></g></g></svg>