<?xml version="1.0" encoding="UTF-8"?><svg id="Calque_2" xmlns="http://www.w3.org/2000/svg" viewBox="0 0 85.82 44.87"><defs><style>.cls-1{fill:#fff;}.cls-2{fill:#1e1f1c;}</style></defs><g id="Calque_1-2"><g><path class="cls-1" d="M83.84,18.27c1.84-.23,1.98-.38,1.98-2.12,0-.22,0-.45,0-.67-.02-2.94-1.72-4.64-4.66-4.66-1.34,0-2.67,0-3.99,0-.08-.29-.14-.48-.19-.66-.54-2.07-1.86-3.17-3.98-3.22-1.41-.03-2.83-.04-4.23,.04-1.65,.09-3.02,1.31-3.43,2.9-.08,.3-.16,.6-.25,.95-1.55,0-3.06-.01-4.57,0-1.42,.02-2.5,.7-3.33,1.81-.74,.99-.78,2.13-.77,3.29,.02,2,.01,2.01,2,2.37,0,.33,0,.67,0,1.02,0,6.21,0,12.43,0,18.64,0,3.21,2,5.22,5.21,5.22,4.97,0,9.95-.08,14.92,.03,3.26,.07,5.34-2.55,5.3-5.3-.08-6.15-.03-12.3-.03-18.45,0-.38,0-.76,0-1.2Zm-67.99-1.86c-4.07,0-8.15,0-12.22,0-1.33,0-1.74,.44-1.62,1.76,.1,1.18,.26,2.35,.41,3.53,.76,6.06,1.54,12.12,2.27,18.18,.36,2.97,2.48,4.96,5.47,4.98,3.82,.02,7.64,.02,11.45,0,2.94-.02,5.08-2,5.42-4.92,.34-2.89,.72-5.77,1.08-8.66,.54-4.31,1.1-8.63,1.6-12.95,.18-1.53-.21-1.91-1.74-1.91-4.04,0-8.09,0-12.13,0ZM7.91,6.03c-1.19,.32-2.41,.66-3.64,.99C.71,7.96-.76,10.61,.38,14.12c.39,1.19,.86,1.46,2.07,1.13,5.03-1.37,10.05-2.75,15.08-4.12,3.61-.99,7.21-1.98,10.83-2.96,.83-.22,1.29-.65,1.2-1.56-.34-3.45-3.29-5.53-6.63-4.65-1.38,.36-2.76,.73-4.13,1.09C17.8,.18,15.81-.53,13.2,.36c-.85,.29-1.73,.46-2.59,.71-1.53,.43-2.51,1.41-2.78,2.97-.1,.61,.04,1.25,.08,1.99Z"/><path class="cls-1" d="M83.84,18.27c0,.44,0,.82,0,1.2,0,6.15-.06,12.3,.03,18.45,.04,2.75-2.04,5.38-5.3,5.3-4.97-.11-9.95-.02-14.92-.03-3.21,0-5.21-2.01-5.21-5.22,0-6.21,0-12.43,0-18.64,0-.35,0-.69,0-1.02-1.99-.36-1.98-.37-2-2.37-.01-1.17,.03-2.31,.77-3.29,.83-1.11,1.9-1.8,3.33-1.81,1.51-.02,3.01,0,4.57,0,.09-.35,.18-.65,.25-.95,.4-1.59,1.77-2.81,3.43-2.9,1.41-.08,2.82-.07,4.23-.04,2.12,.05,3.43,1.14,3.98,3.22,.05,.18,.11,.37,.19,.66,1.32,0,2.66,0,3.99,0,2.94,.02,4.64,1.72,4.66,4.66,0,.22,0,.45,0,.67,0,1.74-.14,1.89-1.98,2.12Zm-22.78-.04c-.03,.27-.08,.49-.08,.71,0,6.37-.01,12.75,0,19.12,0,1.7,.95,2.6,2.64,2.6,4.88,0,9.75,0,14.63,0,2.19,0,3.03-.84,3.04-3,0-6.12,0-12.23,0-18.35,0-.34,0-.68,0-1.07h-20.23Zm22.14-2.63c.11-1.41-.52-2.24-1.77-2.24-6.86-.02-13.72-.02-20.58,0-1.31,0-1.99,.9-1.74,2.25h24.09Zm-8.78-4.86c-.11-.81-.55-1.21-1.21-1.23-1.4-.05-2.81-.06-4.22,0-.64,.03-1.09,.43-1.11,1.22h6.54Z"/><path class="cls-1" d="M15.84,16.41c4.04,0,8.09,0,12.13,0,1.53,0,1.92,.38,1.74,1.91-.51,4.32-1.06,8.63-1.6,12.95-.36,2.89-.74,5.77-1.08,8.66-.34,2.92-2.48,4.91-5.42,4.92-3.82,.02-7.64,.02-11.45,0-3-.02-5.11-2.01-5.47-4.98-.73-6.06-1.51-12.12-2.27-18.18-.15-1.17-.31-2.35-.41-3.53-.12-1.32,.29-1.76,1.62-1.76,4.07,0,8.15,0,12.22,0Zm-11.15,2.59c.4,3.19,.78,6.27,1.16,9.34,.47,3.84,.93,7.68,1.43,11.51,.19,1.45,1.11,2.36,2.57,2.38,4.01,.06,8.02,.06,12.02,0,1.45-.02,2.37-.95,2.57-2.38,.25-1.77,.44-3.55,.66-5.33,.43-3.39,.86-6.78,1.28-10.18,.22-1.76,.41-3.53,.62-5.35H4.7Z"/><path class="cls-1" d="M7.91,6.03c-.04-.74-.19-1.39-.08-1.99,.27-1.57,1.25-2.54,2.78-2.97,.86-.24,1.74-.42,2.59-.71,2.61-.89,4.6-.18,5.6,2.68,1.37-.36,2.75-.73,4.13-1.09,3.34-.88,6.29,1.2,6.63,4.65,.09,.91-.38,1.34-1.2,1.56-3.61,.97-7.22,1.97-10.83,2.96-5.03,1.38-10.05,2.75-15.08,4.12-1.22,.33-1.69,.07-2.07-1.13-1.13-3.5,.33-6.16,3.9-7.1,1.23-.32,2.45-.66,3.64-.99Zm18.76-.07c-.58-1.41-1.6-1.94-2.98-1.57-2.75,.73-5.49,1.5-8.23,2.25-3.7,1.01-7.4,2.01-11.09,3.05-1.42,.4-1.94,1.32-1.7,2.82,7.98-2.18,15.96-4.36,24-6.56Zm-16.08-.66c1.91-.53,3.77-1.04,5.62-1.56-.21-1.07-.78-1.32-1.65-1.08-1.07,.3-2.15,.57-3.22,.88-.92,.26-1.1,.68-.74,1.75Z"/><path class="cls-2" d="M61.06,18.23h20.23c0,.39,0,.73,0,1.07,0,6.12,0,12.23,0,18.35,0,2.17-.85,3-3.04,3-4.88,0-9.75,0-14.63,0-1.69,0-2.63-.9-2.64-2.6-.02-6.37-.01-12.74,0-19.12,0-.22,.05-.43,.08-.71Zm8.76,11.42c0,1.82-.01,3.65,0,5.47,0,1.05,.53,1.67,1.33,1.65,.77-.02,1.25-.62,1.29-1.61,0-.06,0-.13,0-.19,0-3.55,0-7.1,0-10.65,0-1.19-.43-1.76-1.29-1.77-.92-.01-1.33,.54-1.33,1.82,0,1.76,0,3.52,0,5.28Zm-2.6,.01c0-1.85,.01-3.71,0-5.56,0-1.06-.45-1.55-1.29-1.54-.81,0-1.28,.55-1.29,1.57-.01,3.68-.01,7.36,0,11.03,0,.99,.5,1.59,1.26,1.62,.81,.03,1.31-.58,1.32-1.64,.01-1.82,0-3.65,0-5.47Zm7.78-.07c0,1.82,0,3.65,0,5.47,0,1.05,.49,1.68,1.27,1.71,.81,.03,1.31-.57,1.31-1.65,.01-3.65,.01-7.29,0-10.94,0-1.14-.43-1.65-1.3-1.63-.84,.01-1.28,.57-1.28,1.67,0,1.79,0,3.58,0,5.37Z"/><path class="cls-2" d="M83.19,15.61h-24.09c-.25-1.34,.43-2.24,1.74-2.25,6.86-.02,13.72-.02,20.58,0,1.24,0,1.88,.84,1.77,2.24Z"/><path class="cls-2" d="M74.41,10.74h-6.54c.02-.79,.47-1.19,1.11-1.22,1.4-.07,2.81-.06,4.22,0,.66,.02,1.1,.42,1.21,1.23Z"/><path class="cls-2" d="M4.7,18.99H27.01c-.21,1.82-.4,3.58-.62,5.35-.42,3.39-.86,6.78-1.28,10.18-.22,1.78-.41,3.56-.66,5.33-.2,1.43-1.12,2.36-2.57,2.38-4.01,.06-8.02,.06-12.02,0-1.45-.02-2.38-.94-2.57-2.38-.5-3.83-.96-7.67-1.43-11.51-.38-3.07-.76-6.15-1.16-9.34Zm6.89,19.08c-.11-1.37-.23-2.83-.35-4.3-.31-3.76-.62-7.52-.92-11.28-.05-.69-.29-1.27-1.04-1.2-.78,.08-.95,.7-.89,1.44,.44,5.19,.87,10.39,1.28,15.59,.06,.72,.21,1.34,1.06,1.28,.84-.06,.96-.72,.86-1.52Zm8.55,.26c-.08,.66,.13,1.2,.84,1.26,.77,.07,1.02-.44,1.08-1.16,.22-2.84,.47-5.67,.7-8.51,.2-2.42,.38-4.85,.59-7.27,.06-.7-.14-1.29-.87-1.37-.75-.08-1.03,.46-1.07,1.17-.07,1.08-.19,2.17-.27,3.25-.34,4.21-.67,8.42-1.01,12.62Zm-3.3-7.88c0-2.62-.01-5.25,0-7.87,0-.7-.22-1.29-.95-1.3-.79-.02-1.01,.6-1.01,1.33,.01,5.21,.01,10.43,0,15.64,0,.72,.16,1.35,1,1.33,.84-.01,.96-.66,.96-1.37-.02-2.59,0-5.18,0-7.77Z"/><path class="cls-2" d="M26.68,5.96c-8.04,2.2-16.02,4.38-24,6.56-.24-1.5,.27-2.42,1.7-2.82,3.69-1.05,7.39-2.04,11.09-3.05,2.74-.75,5.48-1.52,8.23-2.25,1.39-.37,2.41,.15,2.98,1.57Z"/><path class="cls-2" d="M10.6,5.3c-.36-1.08-.17-1.49,.74-1.75,1.07-.31,2.15-.58,3.22-.88,.87-.24,1.44,.01,1.65,1.08-1.85,.51-3.71,1.03-5.62,1.56Z"/><path class="cls-1" d="M69.81,29.65c0-1.76,0-3.52,0-5.28,0-1.28,.41-1.83,1.33-1.82,.86,.01,1.29,.58,1.29,1.77,0,3.55,0,7.1,0,10.65,0,.06,0,.13,0,.19-.04,.99-.52,1.59-1.29,1.61-.8,.02-1.32-.6-1.33-1.65-.02-1.82,0-3.65,0-5.47Z"/><path class="cls-1" d="M67.21,29.66c0,1.82,0,3.65,0,5.47,0,1.07-.51,1.67-1.32,1.64-.77-.03-1.26-.63-1.26-1.62,0-3.68-.01-7.36,0-11.03,0-1.02,.47-1.56,1.29-1.57,.84,0,1.28,.49,1.29,1.54,.02,1.85,0,3.71,0,5.56Z"/><path class="cls-1" d="M75,29.6c0-1.79,0-3.58,0-5.37,0-1.1,.45-1.66,1.28-1.67,.87-.02,1.3,.49,1.3,1.63,.01,3.65,.01,7.29,0,10.94,0,1.08-.51,1.68-1.31,1.65-.79-.02-1.27-.66-1.27-1.71,0-1.82,0-3.65,0-5.47Z"/><path class="cls-1" d="M11.58,38.07c.1,.8-.02,1.46-.86,1.52-.84,.06-1-.57-1.06-1.28-.41-5.2-.84-10.39-1.28-15.59-.06-.73,.11-1.36,.89-1.44,.75-.07,.99,.51,1.04,1.2,.29,3.76,.61,7.52,.92,11.28,.12,1.47,.24,2.93,.35,4.3Z"/><path class="cls-1" d="M20.13,38.33c.34-4.21,.67-8.42,1.01-12.62,.09-1.08,.21-2.17,.27-3.25,.04-.71,.32-1.25,1.07-1.17,.72,.08,.93,.67,.87,1.37-.21,2.42-.39,4.85-.59,7.27-.23,2.84-.48,5.67-.7,8.51-.05,.71-.3,1.23-1.08,1.16-.71-.06-.92-.6-.84-1.26Z"/><path class="cls-1" d="M16.83,30.46c0,2.59,0,5.18,0,7.77,0,.71-.12,1.35-.96,1.37-.83,.01-1-.61-1-1.33,0-5.21,.01-10.43,0-15.64,0-.74,.22-1.35,1.01-1.33,.72,.01,.95,.6,.95,1.3-.02,2.62,0,5.25,0,7.87Z"/></g></g></svg>